<svg xmlns="http://www.w3.org/2000/svg" xmlns:xlink="http://www.w3.org/1999/xlink" viewBox="0 0 589.206 279.276"><defs><style>.a,.aa,.ac,.ae,.af,.ah,.ak,.al,.am,.an,.aq,.at,.av,.f,.g,.i,.l,.m,.o,.q,.u,.v{fill:none;}.b{fill:#fff;}.c{clip-path:url(#a);}.d{fill:#d4eaf9;}.e{fill:#90c6eb;}.ac,.at,.f,.g,.l,.m{stroke:#86a7c0;}.ah,.ak,.al,.am,.an,.aq,.at,.av,.f,.l,.m,.o,.q,.u,.v{stroke-linecap:round;}.af,.at,.av,.f,.g,.i{stroke-miterlimit:10;}.ak,.al,.am,.f,.m{stroke-width:1.213px;}.aa,.ac,.ae,.ah,.an,.aq,.at,.av,.g,.i,.l,.o,.q,.u,.v{stroke-width:1.375px;}.h{clip-path:url(#d);}.av,.i,.o{stroke:#54738c;}.j{fill:#94b7d3;}.k{fill:#71a3c8;}.aa,.ac,.ae,.ah,.ak,.al,.am,.an,.aq,.l,.m,.o,.q,.u,.v{stroke-linejoin:round;}.n{clip-path:url(#f);}.p{clip-path:url(#g);}.q{stroke:#476073;}.r{clip-path:url(#i);}.s{clip-path:url(#j);}.t{fill:#4d4b6c;}.af,.u{stroke:#373535;}.ae,.v{stroke:#292929;}.w{clip-path:url(#l);}.x{fill:#4c4c6c;}.y{fill:#f3d37a;}.z{fill:#d5effc;}.aa{stroke:#4d6d85;}.ab{clip-path:url(#n);}.ad{clip-path:url(#o);}.af{stroke-width:1.537px;}.ag{fill:#373535;}.ah{stroke:#86a9c9;}.ai{fill:#95c7eb;}.aj{fill:#cb5959;}.ak,.an{stroke:#7d6538;}.al,.aq{stroke:#7c868f;}.am{stroke:#924142;}.ao{clip-path:url(#q);}.ap{clip-path:url(#r);}.ar{fill:#3c3c4c;}.as{fill:#9797a3;}.au{clip-path:url(#t);}</style><clipPath id="a" transform="translate(0 -33.575)"><rect class="a" x="338.152" width="293.7" height="368.195"/></clipPath><clipPath id="d" transform="translate(0 -33.575)"><path class="a" d="M544.057,142.069l-25.088,22.619c-10.387,7.422,11.5,16.4,11.5,16.4s28.391-21.877,33.027-26.482c-.57-13.034-7.99-15.223-13.937-15.794q-.388-.038-.736-.037c-3.46,0-4,2.611-4.762,3.3"/></clipPath><clipPath id="f" transform="translate(0 -33.575)"><path class="a" d="M469.674,245.492s-9.716,37.584-9.219,37.148c4.744-4.175,20.266-8.425,26.877,6.35,1.769-7.43,10.928-44.866,10.928-44.866s-9.712-5.433-18.009-5.434c-4.582,0-8.731,1.657-10.577,6.8"/></clipPath><clipPath id="g" transform="translate(0 -33.575)"><path class="a" d="M471.142,245.53l-.483-.388-3.389,11.466a145.744,145.744,0,0,0,28.4-2.511,95.826,95.826,0,0,0,1.751-11.709s-7.8-3.267-15.024-3.267c-4.857,0-9.455,1.475-11.255,6.409"/></clipPath><clipPath id="i" transform="translate(0 -33.575)"><path class="a" d="M518.39,239.468s24.92,29.232,29.824,35.088c-.689-16.172,15.1-19.147,21.211-17.534.64.169-24.853-29.108-24.853-29.108a9.516,9.516,0,0,0-6.743-2.879c-9.623,0-19.439,14.433-19.439,14.433"/></clipPath><clipPath id="j" transform="translate(0 -33.575)"><path class="a" d="M517.13,238.107s4.434,4.865,8.036,9.124a145.9,145.9,0,0,0,26.527-10.448l-8.158-8.742-.258.563a8.737,8.737,0,0,0-6.21-2.461c-9.158,0-19.937,11.964-19.937,11.964"/></clipPath><clipPath id="l" transform="translate(0 -33.575)"><path class="a" d="M467.41,219.844s-22.3,13.059-38.872,13.765c-8.839,13.186-1.663,29.734,6.253,30.669,16.273-2.291,33.657-16.394,33.657-16.394s21.876-28.443,3.3-28.447a26.2,26.2,0,0,0-4.336.407"/></clipPath><clipPath id="n" transform="translate(0 -33.575)"><path class="a" d="M518.269,190.862c-8.358.87-16.084,2.19-23.773,5.095-16.43,6.207-19.706,17.5-18.854,32.773a211,211,0,0,0,3.038,22.776c10.4.107,28.275-4.106,33.6-5.769,6.9-2.156,22.678-6.351,28.034-9.542a26.64,26.64,0,0,0,4.37-2.946c-.515-4.933-2.185-19.94-4.654-26.242-2.686-6.862-6.294-16.3-18.854-16.3a28.1,28.1,0,0,0-2.907.156"/></clipPath><clipPath id="o" transform="translate(0 -33.575)"><path class="a" d="M449.586,212.294c-1.3.942-2.609.909-2.153,4.2,1.214,8.743,1.642,12.345,4.888,19.624.562,1.263-.344,2.512,4.745,2.981,2.725-.22,2.581-1.4,3.853-3.624,1.179-2.064.21-8.43-1.323-13.407-1.631-5.3-3.393-10.988-6.926-10.989a5.357,5.357,0,0,0-3.084,1.217m-5.219-21.778c-1,.132-1.5.388-1.611,1.391a16.526,16.526,0,0,0,.468,5.995c.983,3.029,2.2,4.946,3.567,9.137.313.956.712,1.314,1.716,1.242,2.1-.151,4.674-1.828,3.749-8.261-1.012-7.019-4.329-9.547-7.235-9.547a5.059,5.059,0,0,0-.654.043M463.7,90.283c-12.357,3.752-32.8,8.312-36.681,10.806-4.987,3.2-8.74,6.935-8.233,13.449.336,4.327,11.664,31.648,17.815,51.944a2.211,2.211,0,0,0,2.44,1.557c10.647-1.63,22.308-9.107,30.915-16.287,11.289-9.417,15.391-32.55,13.013-41.531C478.81,94.5,468.6,91.064,465.95,90.051a1.176,1.176,0,0,0-.389-.048,8.529,8.529,0,0,0-1.859.28m35.552-10.012c-.682.175-1.337-.139-1.836,1.217-4.129,11.207-.319,23.863,1.041,29.235,2.451,9.686,6.907,20.467,21.1,29.74a37.876,37.876,0,0,0,13.249,5.137,2.205,2.205,0,0,0,2.487-2.758c-4.834-17.788-13.855-48.1-16-54.15-2.116-5.965-5.2-7.614-10.293-10.06a2.217,2.217,0,0,0-.9-.137c-2.137,0-6.716,1.232-8.845,1.776"/></clipPath><clipPath id="q" transform="translate(0 -33.575)"><path class="a" d="M493.235,111.451l4.151,18.537s.59,7.166-8.955,14.376-5.215,13.665-5.215,13.665,45.8-6.57,46.056-6.733-8.443-39.2-8.443-39.2l-5.35-5.881Z"/></clipPath><clipPath id="r" transform="translate(0 -33.575)"><path class="a" d="M517.683,104.929c-6.91.135-6.065,2.363-8.944,5.554-3.918,4.342-2.3,21.551-9.059,27.544-3.923,3.481-9.366,8.917-13.207,12.559-3.053,2.895,6.251,5.16,17.776,3.4,7.048-1.076,9.642-27.964,8.9-30.611-1.161-4.121.426-12.7,2.952-15.178,3.088-3.03,2.885-3.271,1.846-3.271-.083,0-.17,0-.262,0"/></clipPath><clipPath id="t" transform="translate(0 -33.575)"><path class="a" d="M419.141,159.694c3.5,4.282,4.781,14.842-6.565,19.2,5.926,2.751,41.816,14.341,41.816,14.341s17.522-15.887,5.229-19.331l-37.952-15.44a8.006,8.006,0,0,0-2.452-.578c-.816,0-1.229.4-.076,1.813"/></clipPath></defs><title>BlueyTrademarkLogo_White</title><path class="b" d="M265.223,283.991c-1.265,0-2.529,0-3.793,0a9.147,9.147,0,0,1-1.952-.142,5.386,5.386,0,0,0-1.042-.058c-1-.018-2-.026-3.008-.043a10.653,10.653,0,0,1-1.95-.158,8.983,8.983,0,0,0-1.434-.083,12.689,12.689,0,0,1-2.6-.206,3.819,3.819,0,0,0-.781-.053,9.363,9.363,0,0,1-2.077-.2,3.042,3.042,0,0,0-.65-.055,8.8,8.8,0,0,1-1.946-.2,3.73,3.73,0,0,0-.78-.066,5.957,5.957,0,0,1-1.424-.175,2.23,2.23,0,0,0-.516-.072c-1.176-.066-2.329-.3-3.49-.47-.688-.1-1.378-.189-2.067-.295-2.8-.428-5.573-.948-8.341-1.53-2-.421-4-.869-5.979-1.384-1.559-.406-3.122-.8-4.656-1.3-1.326-.43-2.667-.815-3.986-1.263-2.227-.757-4.433-1.573-6.6-2.5-1.723-.737-3.444-1.477-5.111-2.335a61.5,61.5,0,0,1-7.832-4.716,41.818,41.818,0,0,1-3.382-2.67c-.782-.695-1.566-1.384-2.3-2.127a31.717,31.717,0,0,1-4.872-6.286,25.875,25.875,0,0,1-3.237-8.646c-.166-.942-.314-1.887-.458-2.833a5.827,5.827,0,0,1-.045-.783q-.015-.981-.015-1.961a16.462,16.462,0,0,1,2.294-8.473,10.114,10.114,0,0,1,1.051-1.494,17.533,17.533,0,0,1,4.116-3.595,20.331,20.331,0,0,1,5.925-2.354,18.188,18.188,0,0,1,4.652-.592c.653.015,1.308.017,1.961,0a18.316,18.316,0,0,1,3.885.437,46.766,46.766,0,0,1,7.053,1.917,56.343,56.343,0,0,1,8.434,3.841c3.016,1.673,5.894,3.557,8.736,5.5,1.941,1.327,3.836,2.723,5.756,4.081q1.707,1.207,3.428,2.4c1.54,1.066,3.089,2.118,4.672,3.12,1.473.933,2.953,1.853,4.486,2.685.957.52,1.9,1.06,2.879,1.544a57.6,57.6,0,0,0,8.969,3.591,48.866,48.866,0,0,0,5.2,1.247c.983.182,1.973.333,2.962.483.3.045.609.033.912.061.476.045.951.107,1.426.153.39.037.781.08,1.172.088,3.967.084,7.934.067,11.9-.008a3.628,3.628,0,0,0,.782-.043,12.9,12.9,0,0,1,2.6-.209c.131,0,.263,0,.392-.015.561-.071,1.119-.167,1.682-.217a8.167,8.167,0,0,0,1.685-.186,1.272,1.272,0,0,1,.387-.056,20.44,20.44,0,0,0,2.983-.331c1.381-.164,2.748-.436,4.124-.644,1.119-.169,2.227-.4,3.335-.622a46.13,46.13,0,0,0,7.516-2.191,64.4,64.4,0,0,0,7.032-3.158c1.5-.8,3-1.587,4.428-2.521.729-.478,1.47-.937,2.207-1.4a59.95,59.95,0,0,0,5.184-3.755,28.866,28.866,0,0,0,2.678-2.294c.367-.37.8-.675,1.175-1.037.69-.664,1.372-1.339,2.036-2.029.422-.439.8-.916,1.208-1.373a34.066,34.066,0,0,0,2.669-3.382q2.978-4.379,5.78-8.87c1.2-1.925,2.344-3.878,3.481-5.837,1.18-2.034,2.264-4.125,3.314-6.232a85.476,85.476,0,0,0,3.665-8.237c.716-1.918,1.361-3.864,1.955-5.823.77-2.542,1.414-5.122,2.219-7.654a1.271,1.271,0,0,0,.067-.38.3.3,0,0,0-.1-.225c-.344-.187-.69-.372-1.049-.525-.922-.392-1.846-.779-2.778-1.147-1.544-.609-3-1.39-4.5-2.113a48.354,48.354,0,0,1-5.994-3.464c-1.406-.951-2.768-1.971-4.105-3.017a47.571,47.571,0,0,1-5.49-5.22c-1.188-1.389-2.35-2.8-3.421-4.286A50.648,50.648,0,0,1,323.45,160a56.845,56.845,0,0,1-2.91-7.275A67.14,67.14,0,0,1,318.306,144c-.242-1.326-.545-2.647-.686-3.985a25.292,25.292,0,0,1-.353-3.374,1.931,1.931,0,0,0-.036-.521,13.764,13.764,0,0,1-.223-2.991,9.961,9.961,0,0,0-.146-1.822,5.077,5.077,0,0,1-.066-1.041c-.006-1.438,0-2.877,0-4.316a3.766,3.766,0,0,1,.03-.782,18.312,18.312,0,0,0,.2-3.257,7.506,7.506,0,0,1,.167-1.818,1.276,1.276,0,0,0,.055-.387,23.235,23.235,0,0,1,.322-3.246c.1-.95.324-1.886.445-2.835a40.669,40.669,0,0,1,1.12-5.231,16.341,16.341,0,0,1,1.409-3.789,19.042,19.042,0,0,1,4.3-5.384,10.027,10.027,0,0,1,4.016-2.111,19.746,19.746,0,0,1,2.188-.354,2.227,2.227,0,0,1,.652.01,15.228,15.228,0,0,1,3.429.783,15.879,15.879,0,0,1,4.162,2.42,20.143,20.143,0,0,1,2.032,1.839,20.9,20.9,0,0,1,3.215,4.428,19.1,19.1,0,0,1,1.567,3.588,31.789,31.789,0,0,1,.769,3.3c.26,1.5.386,3.02.679,4.515.059.3.046.608.079.91.077.692.181,1.381.239,2.074a10.541,10.541,0,0,0,.192,1.947,2.912,2.912,0,0,1,.066.649,10.645,10.645,0,0,0,.237,2.466c.023,1.09.171,2.168.278,3.25.128,1.3.3,2.591.482,3.882.124.861.222,1.726.344,2.587.068.474.162.943.246,1.414.446,2.484.917,4.962,1.473,7.425a56.058,56.058,0,0,0,1.58,5.658,19.432,19.432,0,0,0,1.672,3.542,6.851,6.851,0,0,0,3.213,2.958,2.344,2.344,0,0,0,.879.231.784.784,0,0,0,.689-.3c.315-.417.638-.83.929-1.263,1.508-2.242,3.029-4.475,4.5-6.742.782-1.205,1.463-2.474,2.2-3.708a34.384,34.384,0,0,0,1.657-3.115c.829-1.776,1.626-3.566,2.321-5.4a82.5,82.5,0,0,0,2.948-10.02,53.888,53.888,0,0,1,3.089-9.288,54.865,54.865,0,0,1,3.079-6.058c.157-.261.3-.532.439-.8a13.582,13.582,0,0,1,2.159-2.941,12,12,0,0,1,1.685-1.443,16.2,16.2,0,0,1,6.474-2.99,4.941,4.941,0,0,1,.907-.1c.828-.017,1.656-.033,2.484-.012a7.384,7.384,0,0,1,3.9,1.343,9.407,9.407,0,0,1,3.117,3.63,18.773,18.773,0,0,1,1.743,5.317c.2,1.073.2,2.168.436,3.233a4.194,4.194,0,0,1,.045.912c0,1.57-.02,3.14,0,4.709.012.749-.215,1.464-.234,2.206A8.45,8.45,0,0,1,402.9,126a2.07,2.07,0,0,0-.049.388,59.6,59.6,0,0,1-1.192,7.2c-.393,1.652-.762,3.31-1.2,4.95-.56,2.1-1.164,4.2-1.776,6.285-.721,2.467-1.451,4.931-2.214,7.384-.595,1.914-1.239,3.813-1.874,5.714-.993,2.976-1.98,5.955-3,8.922-.736,2.142-1.521,4.268-2.282,6.4-.484,1.354-.957,2.712-1.45,4.062q-.942,2.578-1.91,5.146-1.23,3.238-2.489,6.464c-.552,1.421-1.12,2.836-1.68,4.254-.928,2.35-1.837,4.708-2.789,7.048-.821,2.017-1.628,4.041-2.537,6.022-.4.871-.756,1.761-1.133,2.642-.068.16-.135.322-.207.48q-2.892,6.372-6.161,12.56c-1.468,2.77-3.029,5.492-4.644,8.183-1.729,2.879-3.588,5.671-5.478,8.442-1.3,1.907-2.644,3.785-4.109,5.573-.855,1.044-1.675,2.117-2.511,3.176-.108.136-.222.269-.338.4-.838.945-1.7,1.869-2.512,2.836-1.994,2.377-4.28,4.467-6.466,6.655-1.07.826-2.01,1.8-3.057,2.656s-2.079,1.721-3.151,2.542a77.45,77.45,0,0,1-7.569,5.127c-2.625,1.556-5.281,3.057-8.035,4.372-2.4,1.144-4.816,2.249-7.29,3.224-1.9.75-3.8,1.527-5.727,2.218-2.3.825-4.6,1.624-6.953,2.285-1.3.365-2.588.773-3.9,1.088-2.03.487-4.067.952-6.136,1.255-1.42.208-2.826.53-4.251.676a29.638,29.638,0,0,1-3.243.358,2.38,2.38,0,0,0-.647.072,7.433,7.433,0,0,1-1.687.176,3.876,3.876,0,0,0-.78.058,10.759,10.759,0,0,1-2.34.2,9.258,9.258,0,0,0-1.949.175,4.31,4.31,0,0,1-.911.06c-.916.019-1.831.029-2.747.045a10.4,10.4,0,0,0-2.082.15,4.946,4.946,0,0,1-1.042.054c-1.4,0-2.79,0-4.185,0Z" transform="translate(0 -33.575)"/><path class="b" d="M247.425,148.031c0,1.264.006,2.528,0,3.792a12.086,12.086,0,0,1-.159,2.212,10.421,10.421,0,0,0-.077,1.565,20.479,20.479,0,0,1-.2,3,13.235,13.235,0,0,0-.079,1.956,13.006,13.006,0,0,1-.167,2.081,10.263,10.263,0,0,0-.085,1.563,8.531,8.531,0,0,1-.193,2.077,2.294,2.294,0,0,0-.058.519c-.052,1.133-.3,2.239-.457,3.358-.291,2.071-.752,4.109-1.17,6.154-.313,1.534-.712,3.053-1.125,4.564-.736,2.689-1.534,5.36-2.475,7.985-.81,2.256-1.67,4.491-2.7,6.657-.244.511-.443,1.043-.695,1.55a46.417,46.417,0,0,1-4.952,7.981A15.712,15.712,0,0,1,231.109,207a24.052,24.052,0,0,1-3.909,3.043,23.424,23.424,0,0,1-7.665,2.873,9.921,9.921,0,0,1-1.678.233,1.4,1.4,0,0,0-.26.021,27.528,27.528,0,0,1-5.474.194c-1.289-.2-2.591-.3-3.875-.541a36.617,36.617,0,0,1-6.385-1.873,33.227,33.227,0,0,1-5.5-2.722c-1.374-.849-2.683-1.784-3.965-2.759a2.535,2.535,0,0,1-.208-.159,46.922,46.922,0,0,1-4.2-4.3c-.775-.941-1.542-1.886-2.268-2.867q-1.947-2.629-3.645-5.422a90.319,90.319,0,0,1-4.415-8.009c-1.376-2.866-2.692-5.758-3.8-8.744q-1.209-3.25-2.152-6.579a25.809,25.809,0,0,1-.674-3.191c-.1-.645-.236-1.283-.369-1.922-.384-1.831-.8-3.656-1.156-5.492-.368-1.878-.72-3.76-1.012-5.65-.139-.9-.313-1.8-.372-2.715-.065-1-.269-1.98-.407-2.97a5.893,5.893,0,0,1-.056-.651,11,11,0,0,0-.206-2.077,4.679,4.679,0,0,1-.053-.912c-.019-.784-.018-1.569-.048-2.353-.018-.477-.073-.953-.121-1.429a15.369,15.369,0,0,1,0-3.39,16.825,16.825,0,0,0,.124-1.691c.012-.567.008-1.134.037-1.7.023-.434.085-.865.134-1.3.015-.129.064-.257.067-.386a23.274,23.274,0,0,1,.282-2.593q.212-1.552.525-3.085a46.112,46.112,0,0,1,1.637-5.911A32.537,32.537,0,0,1,171.713,116a10.437,10.437,0,0,1,1.808-2.546,26.666,26.666,0,0,1,5.327-4.185,25.788,25.788,0,0,1,5.711-2.554,17.051,17.051,0,0,1,2.8-.611,12.508,12.508,0,0,1,2.466-.222,10.908,10.908,0,0,1,8.6,4.281,16.828,16.828,0,0,1,2.438,4.454,29.271,29.271,0,0,1,1.328,4.911,15.531,15.531,0,0,1,.283,3.245q-.019,2.419-.046,4.838a4.25,4.25,0,0,1-.054.912,11.644,11.644,0,0,0-.2,2.34,7.037,7.037,0,0,1-.154,1.557,3.878,3.878,0,0,0-.084.778,11.783,11.783,0,0,1-.216,2.338,6.079,6.079,0,0,0-.063.911c-.043.476-.1.951-.146,1.427s-.087.953-.112,1.431a12.382,12.382,0,0,1-.171,1.818,9.076,9.076,0,0,0-.095,1.432,12.351,12.351,0,0,1-.185,2.341,4.446,4.446,0,0,0-.053.911c-.017.872-.026,1.744-.042,2.615a10.6,10.6,0,0,1-.16,2.212,4.129,4.129,0,0,0-.05.912q-.009,5.492-.009,10.984a6.653,6.653,0,0,0,.137,1.559,3.546,3.546,0,0,1,.084.908,10.635,10.635,0,0,0,.6,3.33,6.652,6.652,0,0,0,1.494,2.578,7.49,7.49,0,0,0,3.588,2.284,8.333,8.333,0,0,0,8.548-2.114,5.751,5.751,0,0,0,1.38-2.344,44.991,44.991,0,0,0,1.237-4.4,21.477,21.477,0,0,0,.451-2.963,1.877,1.877,0,0,1,.03-.391,12.668,12.668,0,0,0,.214-3.121c.008-1.439-.007-2.877-.019-4.315a4.942,4.942,0,0,0-.057-1.042,13.135,13.135,0,0,1-.2-2.21c-.023-.433-.086-.865-.134-1.3-.034-.3-.073-.6-.111-.907q-.081-.647-.165-1.293c-.023-.172-.06-.343-.075-.517-.147-1.691-.458-3.358-.724-5.033a21.862,21.862,0,0,1-.374-3.106,14.737,14.737,0,0,1,1.388-6.2,15.093,15.093,0,0,1,3.742-5.142,13.619,13.619,0,0,1,5.841-3.066c.955-.064,1.886-.342,2.851-.317.174,0,.35-.008.522.013a20.307,20.307,0,0,1,5.319,1.255,22.448,22.448,0,0,1,3.6,1.845,14.085,14.085,0,0,1,3.954,3.755,18.783,18.783,0,0,1,2.632,5.943c.349,1.262.484,2.564.739,3.844a5.341,5.341,0,0,1,.05.782,4.943,4.943,0,0,0,.041.782,23.88,23.88,0,0,1,.228,4.43c.015.653,0,1.308,0,1.961Z" transform="translate(0 -33.575)"/><path class="b" d="M248.244,207.432c0-1.395,0-2.79,0-4.185a9.957,9.957,0,0,1,.158-2.212,4.524,4.524,0,0,0,.052-.912c.016-.871.023-1.743.04-2.615a10.39,10.39,0,0,1,.171-2.211,4.6,4.6,0,0,0,.057-.912c.018-.74.027-1.482.043-2.222a3.991,3.991,0,0,1,.034-.783,17.237,17.237,0,0,0,.218-3.255,9.632,9.632,0,0,1,.138-1.56,8.643,8.643,0,0,0,.1-1.3,14.843,14.843,0,0,1,.2-2.6,7.617,7.617,0,0,0,.072-1.3,6.63,6.63,0,0,1,.153-1.557,1.318,1.318,0,0,0,.065-.386,31.83,31.83,0,0,1,.322-3.377c.06-.823.192-1.642.315-2.459.129-.86.312-1.712.423-2.574.128-1,.356-1.969.563-2.948a45.931,45.931,0,0,1,1.78-6.414,41.655,41.655,0,0,1,2.856-6.3,43.646,43.646,0,0,1,3.95-5.675,28.65,28.65,0,0,1,1.917-2.14c1.1-1.119,2.214-2.225,3.323-3.335a33.162,33.162,0,0,1,6.39-4.952,29.776,29.776,0,0,1,5.175-2.492,36.252,36.252,0,0,1,4.888-1.417c.85-.18,1.713-.294,2.572-.432a5.733,5.733,0,0,0,.648-.075,7.824,7.824,0,0,1,1.946-.194,9.911,9.911,0,0,0,1.95-.166,4.244,4.244,0,0,1,.911-.055c.741-.007,1.482,0,2.223,0a5.869,5.869,0,0,1,1.429.127,3.272,3.272,0,0,0,.647.08,15.8,15.8,0,0,1,6.609,1.87,9.554,9.554,0,0,1,2.422,1.76,12.832,12.832,0,0,1,2.04,2.372,15.164,15.164,0,0,1,2.075,5.867,23.266,23.266,0,0,1,.212,3.384,9.4,9.4,0,0,1-.154,1.687c-.139.725-.18,1.465-.349,2.19a17.858,17.858,0,0,1-1.145,3.467,13.444,13.444,0,0,1-1.095,1.93,15.008,15.008,0,0,1-1.636,2.034,20.086,20.086,0,0,1-3.881,3.283,28.873,28.873,0,0,1-3.8,2.033,33.879,33.879,0,0,1-5.195,1.745c-.8.192-1.619.322-2.435.455-1.039.168-2.087.14-3.118.276-1.172.155-2.349.121-3.515.239a24.84,24.84,0,0,0-6.389,1.236,17.809,17.809,0,0,0-3.595,1.848,4.92,4.92,0,0,0-2.059,3.072,4.2,4.2,0,0,0-.025,1.819,5.291,5.291,0,0,0,1.869,3.21,3.31,3.31,0,0,0,2.025.818,21.107,21.107,0,0,0,4.691-.194,3.432,3.432,0,0,1,.65-.058c1.133-.015,2.266-.034,3.4-.028a6.818,6.818,0,0,1,2.891.72,5.6,5.6,0,0,1,2.971,3.627,7.611,7.611,0,0,1,.243,3.236,4.693,4.693,0,0,1-1.277,2.808,25.908,25.908,0,0,1-2.5,2.3c-1.894,1.475-3.909,2.771-5.9,4.1-.69.458-1.378.919-2.071,1.371a7.3,7.3,0,0,0-2.96,3.878,6.554,6.554,0,0,0-.237,3.857,8.775,8.775,0,0,0,.785,2.206,2.213,2.213,0,0,0,.491.6,6.3,6.3,0,0,0,3.6,1.4c.607.042,1.22.025,1.83.018a7.151,7.151,0,0,0,3.692-1.165,3.416,3.416,0,0,0,.606-.5,38.325,38.325,0,0,0,3.683-3.887c.053-.069.114-.132.173-.2.929-1.038,1.891-2.049,2.777-3.124.834-1.011,1.742-1.947,2.639-2.9.268-.284.477-.627.755-.9a31.982,31.982,0,0,1,3.93-3.433,11.656,11.656,0,0,1,5.186-2.011,24,24,0,0,1,2.466-.222,16.55,16.55,0,0,1,3.373.346,19.017,19.017,0,0,1,5.768,2.029,10.872,10.872,0,0,1,3.212,2.639,9.185,9.185,0,0,1,1.363,2.521,14.921,14.921,0,0,1,.75,2.637,4.76,4.76,0,0,1,.087.908c.007,1.439-.008,2.877,0,4.315a9.833,9.833,0,0,1-.321,2.062,24.676,24.676,0,0,1-2.2,6.409,21.054,21.054,0,0,1-4.052,5.577,15.355,15.355,0,0,1-1.845,1.658,3.649,3.649,0,0,0-.389.349c-1.4,1.308-2.9,2.5-4.405,3.689-1.468,1.161-2.924,2.339-4.4,3.491-1.03.805-2.081,1.581-3.125,2.366-1.984,1.493-3.963,2.991-6.063,4.323a51.117,51.117,0,0,1-5.689,3.206,33.975,33.975,0,0,1-6.761,2.4,18.225,18.225,0,0,1-3.859.638,14.924,14.924,0,0,1-3.512.232,20.087,20.087,0,0,1-8.706-2.012,26.979,26.979,0,0,1-6.18-4.111c-.622-.546-1.251-1.08-1.85-1.653a23.394,23.394,0,0,1-4.308-5.719c-.355-.646-.624-1.342-.92-2.021a30.1,30.1,0,0,1-1.753-5.6c-.316-1.443-.525-2.91-.772-4.368a7.535,7.535,0,0,1-.059-.782,4.381,4.381,0,0,0-.055-.781,11.942,11.942,0,0,1-.223-2.6,4.668,4.668,0,0,0-.058-.911,9.664,9.664,0,0,1-.166-2.211c-.006-1.439,0-2.877,0-4.316Z" transform="translate(0 -33.575)"/><path class="b" d="M143.486,235.88c-.828,0-1.656.006-2.484,0a6.573,6.573,0,0,1-1.816-.177,1.785,1.785,0,0,0-.388-.05,32.017,32.017,0,0,1-6.161-1.076,38.376,38.376,0,0,1-4.445-1.522,27.088,27.088,0,0,1-4.782-2.67,12.974,12.974,0,0,1-1.943-1.539c-.215-.214-.466-.392-.7-.589a3.432,3.432,0,0,1-.488-.432c-.729-.923-1.58-1.738-2.278-2.69a32.257,32.257,0,0,1-2.085-3.314,21.131,21.131,0,0,1-.932-2.014,30.952,30.952,0,0,1-1.819-5.718,19.979,19.979,0,0,1-.471-2.96c-.024-.389-.159-.771-.173-1.159-.042-1.133-.343-2.239-.341-3.376a3.063,3.063,0,0,0-.065-.779,8.741,8.741,0,0,1-.195-1.947,3.815,3.815,0,0,0-.049-.781,18.584,18.584,0,0,1-.237-2.6c-.132-1.213-.257-2.423-.278-3.643a11.376,11.376,0,0,1-.229-2.6,3.122,3.122,0,0,0-.048-.651,12.328,12.328,0,0,1-.207-2.6,9.416,9.416,0,0,0-.143-1.559,8.259,8.259,0,0,1-.1-1.3,15.994,15.994,0,0,0-.2-2.6,8.642,8.642,0,0,1-.07-1.434,11.767,11.767,0,0,0-.2-2.47,4.043,4.043,0,0,1-.056-.781,7.654,7.654,0,0,0-.181-1.685,3.731,3.731,0,0,1-.08-.779,7.475,7.475,0,0,0-.18-1.554,3.951,3.951,0,0,1-.083-.778,7.993,7.993,0,0,0-.175-1.555,4.646,4.646,0,0,1-.092-.908,7.715,7.715,0,0,0-.164-1.426,5.157,5.157,0,0,1-.095-.907,8.1,8.1,0,0,0-.2-1.815,2.744,2.744,0,0,1-.061-.649,12.4,12.4,0,0,0-.2-2.077,8.293,8.293,0,0,1-.075-1.3,11.524,11.524,0,0,0-.169-1.95,7.7,7.7,0,0,1-.085-1.3,17.691,17.691,0,0,0-.209-3.125,4.322,4.322,0,0,1-.037-.912q-.007-4.185-.007-8.368a6.3,6.3,0,0,1,.149-1.688,1.311,1.311,0,0,0,.052-.388,30.573,30.573,0,0,1,.325-3.638c.041-.474.158-.943.242-1.414a23.376,23.376,0,0,1,.854-3.416,15.553,15.553,0,0,1,3-5.166c.2-.232.392-.467.59-.7a7.315,7.315,0,0,1,.6-.687c.777-.7,1.529-1.434,2.363-2.057a23.184,23.184,0,0,1,7.647-3.886,17.359,17.359,0,0,1,4.626-.733c.784,0,1.569,0,2.353,0a20.254,20.254,0,0,1,7.271,1.4,16.38,16.38,0,0,1,8.576,7.105,23.132,23.132,0,0,1,2.643,6.788c.27,1.1.451,2.213.611,3.335a26.181,26.181,0,0,1,.231,2.86,4.4,4.4,0,0,0,.039.651,32.13,32.13,0,0,1,.156,5.217,31.174,31.174,0,0,0-.245,4.561,3.881,3.881,0,0,1-.057.78,10.318,10.318,0,0,0-.18,2.21,14.853,14.853,0,0,1-.183,2.341,11.632,11.632,0,0,0-.084,1.695,10.7,10.7,0,0,1-.157,1.819,7.917,7.917,0,0,0-.092,1.3,12.728,12.728,0,0,1-.185,2.21,7.5,7.5,0,0,0-.078,1.3,11.819,11.819,0,0,1-.18,2.079,7.707,7.707,0,0,0-.082,1.3,12.438,12.438,0,0,1-.178,2.08,8.609,8.609,0,0,0-.088,1.432,11.115,11.115,0,0,1-.176,1.949,7.587,7.587,0,0,0-.085,1.3,12.119,12.119,0,0,1-.166,1.819,10.519,10.519,0,0,0-.1,1.562,8.689,8.689,0,0,1-.172,1.818,3.8,3.8,0,0,0-.073.779,13.348,13.348,0,0,1-.222,2.6,4.594,4.594,0,0,0-.05.912,10.525,10.525,0,0,1-.19,2.078,6.759,6.759,0,0,0-.074,1.041q-.067.977-.142,1.952a.252.252,0,0,0,.347.251c.2-.091.4-.181.59-.278.858-.428,1.714-.861,2.572-1.288a28.118,28.118,0,0,1,6.021-2.141,19.438,19.438,0,0,1,5.3-.613,11.806,11.806,0,0,1,6.491,2.095,7.633,7.633,0,0,1,.807.662c.415.385.816.786,1.216,1.188a13.352,13.352,0,0,1,3.183,5.189,14.635,14.635,0,0,1,.83,5c-.006.348-.008.7,0,1.046a16.781,16.781,0,0,1-.471,3.877,31.565,31.565,0,0,1-2.584,7.241,34.04,34.04,0,0,1-3.587,5.757c-.211.275-.448.533-.685.788a32.153,32.153,0,0,1-5.018,4.364,42.528,42.528,0,0,1-5.81,3.506,31.77,31.77,0,0,1-7.366,2.625,14.268,14.268,0,0,1-3.365.389c-.7-.018-1.4,0-2.092,0Z" transform="translate(0 -33.575)"/><path class="b" d="M104.276,197.025c-.231-1.024-.231-2.073-.416-3.1a43.067,43.067,0,0,0-1-4.455,38.137,38.137,0,0,0-4-9.063,33.043,33.043,0,0,0-4.764-6.2c-.8-.807-1.61-1.6-2.411-2.4a34.571,34.571,0,0,0-4.016-3.337,39.062,39.062,0,0,0-6.929-4.18c-.119-.054-.235-.113-.353-.17a29.957,29.957,0,0,0-7.8-2.561c-.385-.068-.764-.174-1.144-.269a.449.449,0,0,1-.3-.515c.03-.17.069-.34.107-.509.282-1.231.628-2.45.832-3.693a61.887,61.887,0,0,0,.894-6.2c.011-.173.064-.342.084-.515.051-.432.112-.863.136-1.3a12.06,12.06,0,0,1,.2-2.21,3.437,3.437,0,0,0,.051-.781q.006-3.6,0-7.192c0-.347-.056-.694-.091-1.04-.044-.432-.1-.864-.139-1.3-.031-.347-.014-.7-.074-1.043-.277-1.585-.533-3.174-.963-4.73a24.232,24.232,0,0,0-4.479-8.926,22.028,22.028,0,0,0-4.591-4.237,31.346,31.346,0,0,0-7.557-3.827,63.384,63.384,0,0,0-8.423-2.355c-1.108-.225-2.221-.44-3.342-.582a20.4,20.4,0,0,0-3.244-.33,1.313,1.313,0,0,1-.388-.054,6.518,6.518,0,0,0-1.688-.155c-.61-.007-1.22-.022-1.83-.013a24,24,0,0,0-4.561.225,5.626,5.626,0,0,1-.782.043,5.622,5.622,0,0,0-.651.057c-1.584.284-3.175.535-4.729.97a28.874,28.874,0,0,0-3.958,1.338,34.364,34.364,0,0,0-6.906,3.952,38.419,38.419,0,0,0-4.168,3.561,29.719,29.719,0,0,0-2,2.237A34.41,34.41,0,0,0,5.4,127.219a34.7,34.7,0,0,0-3.427,8.871,13.74,13.74,0,0,0-.469,2.828,6.658,6.658,0,0,1-.114.774c-.036.258-.079.517-.091.777a35.977,35.977,0,0,1-.237,3.779,20.07,20.07,0,0,0-.069,2.481A6.434,6.434,0,0,1,.935,147.9a12.907,12.907,0,0,0-.175,2.473c-.017.915-.021,1.831-.043,2.746-.008.347-.049.694-.078,1.041-.041.476-.112.952-.121,1.429-.032,1.612-.04,3.225-.062,4.838A6.264,6.264,0,0,1,.4,161.6a9.688,9.688,0,0,0-.144,1.951Q.219,168.2.186,172.838a9.5,9.5,0,0,1-.076,1.433A9.868,9.868,0,0,0,0,175.833v6.277q0,3.139,0,6.278a6.19,6.19,0,0,0,.049,1.173,10.859,10.859,0,0,1,.134,2.083q.034,5.885.069,11.77a6.9,6.9,0,0,0,.056,1.3,11.99,11.99,0,0,1,.146,2.213c.01.61,0,1.221.02,1.831a40.936,40.936,0,0,0,.239,5.868,16.028,16.028,0,0,0,.265,2.857c.145.813.193,1.645.366,2.451A25.47,25.47,0,0,0,3.9,227.045a14.648,14.648,0,0,0,2.335,3.134,13.07,13.07,0,0,0,2.458,1.936,41.557,41.557,0,0,0,7.046,3.415c1.385.533,2.8.957,4.217,1.393.957.295,1.925.551,2.893.807,2.358.623,4.749,1.093,7.146,1.535.641.118,1.3.173,1.93.318.683.156,1.378.2,2.066.3,1.161.176,2.314.4,3.489.467a2.286,2.286,0,0,1,.517.072,5.9,5.9,0,0,0,1.424.173,3.664,3.664,0,0,1,.78.064,9.43,9.43,0,0,0,2.077.2,3.966,3.966,0,0,1,.781.058,10.806,10.806,0,0,0,2.339.2,9.325,9.325,0,0,1,1.949.175,3.946,3.946,0,0,0,.911.058q3.989.009,7.977,0a4.807,4.807,0,0,0,1.041-.07,9.849,9.849,0,0,1,1.818-.176,6.594,6.594,0,0,0,.913-.06c1.455-.265,2.926-.421,4.379-.7a57.93,57.93,0,0,0,6.7-1.719,63.5,63.5,0,0,0,8.7-3.552c1.758-.868,3.513-1.742,5.216-2.719a56.759,56.759,0,0,0,6.066-3.844,38.237,38.237,0,0,0,4.358-3.741c.61-.624,1.168-1.29,1.74-1.947a27.481,27.481,0,0,0,3.046-4.4,28.743,28.743,0,0,0,2.816-7.156,30.5,30.5,0,0,0,1.079-6.819,2.134,2.134,0,0,1,.055-.519,6.781,6.781,0,0,0,.162-1.818q.007-2.026,0-4.054A4.942,4.942,0,0,0,104.276,197.025ZM33.332,160.32a11.844,11.844,0,0,1-1.453-4.028,10.6,10.6,0,0,1-.293-2.193,19.12,19.12,0,0,1-.217-4.16,7.367,7.367,0,0,1,.169-1.945,4.629,4.629,0,0,0,.075-.777,9.193,9.193,0,0,1,1.133-3.848,7.721,7.721,0,0,1,2-2.376,10.316,10.316,0,0,1,3.046-1.729,9.761,9.761,0,0,1,5.652-.108,10.3,10.3,0,0,1,2.886,1.486,6.477,6.477,0,0,1,2.3,4.525c.022.391,0,.783,0,1.214a11.545,11.545,0,0,1-.665,4.188,14.522,14.522,0,0,1-.98,2.556,22.716,22.716,0,0,1-2.1,3.749,21.707,21.707,0,0,1-1.624,2.037,11.513,11.513,0,0,1-3.942,2.73,5.951,5.951,0,0,1-2.807.453,5.184,5.184,0,0,1-2.426-.884A2.583,2.583,0,0,1,33.332,160.32Zm30.743,37.6a15.23,15.23,0,0,1-.97,2.974,13.722,13.722,0,0,1-3.51,4.5,12.311,12.311,0,0,1-1.2.786,14.693,14.693,0,0,1-3.063,1.453,31.14,31.14,0,0,1-4.934,1.238,5.487,5.487,0,0,1-.781.067,8.47,8.47,0,0,0-1.426.159,5.082,5.082,0,0,1-1.04.081c-1.221.009-2.441,0-3.662,0a2.269,2.269,0,0,1-.261-.006c-.649-.072-1.3-.164-1.945-.215a11.616,11.616,0,0,1-1.815-.2c-.675-.162-1.372-.229-2.057-.351a6.794,6.794,0,0,1-2.08-.752,1.779,1.779,0,0,1-.89-1.077,3.808,3.808,0,0,1-.192-1.154c.006-.872,0-1.744,0-2.616h.017c0-.654-.015-1.308.005-1.961.014-.478.078-.953.112-1.43.031-.434.069-.869.074-1.3q.024-2.028.024-4.055a4.053,4.053,0,0,1,.561-2.123,7.276,7.276,0,0,1,1.568-1.913,9.515,9.515,0,0,1,2.563-1.539,29.466,29.466,0,0,1,5.788-1.558c.776-.135,1.563-.154,2.33-.282a22.068,22.068,0,0,1,3.648-.18,5.621,5.621,0,0,1,1.428.129,3.6,3.6,0,0,0,.647.089,17.576,17.576,0,0,1,6.736,1.927,9.3,9.3,0,0,1,1.838,1.239,7.939,7.939,0,0,1,2.222,3.183,11.877,11.877,0,0,1,.49,2.422A8.7,8.7,0,0,1,64.075,197.916Z" transform="translate(0 -33.575)"/><g class="c"><g class="c"><g class="c"><path class="d" d="M519.168,165.6s36.935-31.25,40.044-33.226a.619.619,0,0,0,.042-1c-.674-.641-3.833-4.475-1.165-7.255a5.087,5.087,0,0,1,7.61.11c.148.2.58.732.86-.558.491-2.872,3.445-5.611,6.512-4.6,2.9.96,3.672,5.426,1.344,7.539-.525.477.554.273,1.07-.14a4.966,4.966,0,0,1,7.332,1.861c1.4,2.8-.867,5.564-1.849,6.521-.4.387.1.664.5.7a3.983,3.983,0,0,1,3.464,5.063c-.97,3.767-5.839,4.189-8.364,3.255-.773-.349-.874.051-1.048.3s-.709,1.376-3.884,2.165a1.941,1.941,0,0,0-.675.473c-2.036,2.1-39.879,33.14-39.879,33.14" transform="translate(0 -33.575)"/><path class="e" d="M519.442,165.364l30.78-26.316s9.038-.731,13.271,14.143c-4.636,4.6-32.412,26.761-32.412,26.761s-22.025-7.166-11.639-14.588" transform="translate(0 -33.575)"/><path class="f" d="M570.89,132.38s.862,4.583-4.453,5.937" transform="translate(0 -33.575)"/><path class="g" d="M519.168,165.6s36.935-31.25,40.044-33.226a.619.619,0,0,0,.042-1c-.674-.641-3.833-4.475-1.165-7.255a5.087,5.087,0,0,1,7.61.11c.148.2.58.732.86-.558.491-2.872,3.445-5.611,6.512-4.6,2.9.96,3.672,5.426,1.344,7.539-.525.477.554.273,1.07-.14a4.966,4.966,0,0,1,7.332,1.861c1.4,2.8-.867,5.564-1.849,6.521-.4.387.1.664.5.7a3.983,3.983,0,0,1,3.464,5.063c-.97,3.767-5.839,4.189-8.364,3.255-.773-.349-.874.051-1.048.3s-.709,1.376-3.884,2.165a1.941,1.941,0,0,0-.675.473c-2.036,2.1-39.879,33.14-39.879,33.14" transform="translate(0 -33.575)"/></g><g class="h"><path class="i" d="M519.168,165.6s36.935-31.25,40.044-33.226a.619.619,0,0,0,.042-1c-.674-.641-3.833-4.475-1.165-7.255a5.087,5.087,0,0,1,7.61.11c.148.2.58.732.86-.558.491-2.872,3.445-5.611,6.512-4.6,2.9.96,3.672,5.426,1.344,7.539-.525.477.554.273,1.07-.14a4.966,4.966,0,0,1,7.332,1.861c1.4,2.8-.867,5.564-1.849,6.521-.4.387.1.664.5.7a3.983,3.983,0,0,1,3.464,5.063c-.97,3.767-5.839,4.189-8.364,3.255-.773-.349-.874.051-1.048.3s-.709,1.376-3.884,2.165a1.941,1.941,0,0,0-.675.473c-2.036,2.1-39.879,33.14-39.879,33.14" transform="translate(0 -33.575)"/></g><g class="c"><path class="d" d="M471.3,244.893l-10.276,41.1s-11.233-.283-11.559,13.059c-.238,9.728,27.543,17.577,31.532,10.2,1.2-1.975,15.658-64.839,15.658-64.839s-12.464-18.648-25.355.476" transform="translate(0 -33.575)"/><path class="j" d="M466.735,299.266c11.758,5.164,12.273,11.952,12.273,11.952a26.611,26.611,0,0,1-16.59-1c-7.549-3.033-14.947-9.031-12.953-11.667,2.713-3.585,11.989-1.606,17.27.714" transform="translate(0 -33.575)"/><path class="e" d="M471.3,244.893l-9.22,36.88a.539.539,0,0,0,.472-.267c2.309-3.552,17.643-8.784,23.978,6.143,1.769-7.43,10.6-43.993,10.6-43.993s-20.645-13.225-25.83,1.237" transform="translate(0 -33.575)"/><path class="k" d="M471.142,245.531,468.448,256.6a118.138,118.138,0,0,0,25.925-2.3c1.23-5.31,2.759-11.875,2.759-11.875s-21.511-9.168-25.99,3.11" transform="translate(0 -33.575)"/><path class="l" d="M460.455,286.014s5.959-.341,12.952,4.474" transform="translate(0 -33.575)"/><path class="m" d="M459.171,288.99s-4,3.212-4.281,6.708a5.879,5.879,0,0,0,2.39,5.244" transform="translate(0 -33.575)"/><path class="m" d="M469.411,291.631s-4.2,2.627-4.523,6.125a7.394,7.394,0,0,0,2.042,5.47" transform="translate(0 -33.575)"/><path class="l" d="M471.3,244.893l-10.276,41.1s-11.233-.283-11.559,13.059c-.238,9.728,27.543,17.577,31.532,10.2,1.2-1.975,15.658-64.839,15.658-64.839S484.193,225.769,471.3,244.893Z" transform="translate(0 -33.575)"/></g><g class="n"><path class="o" d="M471.3,244.893l-10.276,41.1s-11.233-.283-11.559,13.059c-.238,9.728,27.543,17.577,31.532,10.2,1.2-1.975,15.658-64.839,15.658-64.839S484.193,225.769,471.3,244.893Z" transform="translate(0 -33.575)"/></g><g class="p"><path class="q" d="M471.3,244.893l-10.276,41.1s-11.233-.283-11.559,13.059c-.238,9.728,27.543,17.577,31.532,10.2,1.2-1.975,15.658-64.839,15.658-64.839S484.193,225.769,471.3,244.893Z" transform="translate(0 -33.575)"/></g><g class="c"><path class="d" d="M542.849,228.1l28.708,33.2s10.853-4.98,16.945,6.735c2.249,4.324-18.088,25.946-24.866,22.087-1.953-1.231-43.68-51.114-43.68-51.114s2.813-22.252,22.893-10.909" transform="translate(0 -33.575)"/><path class="j" d="M572.341,277.859c-8.209,9.875-6.839,12.264-6.839,12.264A23,23,0,0,0,580,282.57c5.4-6.087,10.04-13.988,8.342-15.063-3.815-2.416-12.311,5.917-16,10.352" transform="translate(0 -33.575)"/><path class="e" d="M542.849,228.1l24.734,28.87a.54.54,0,0,1-.542-.028c-3.654-2.145-19.71.028-18.7,16.213-4.9-5.855-29.395-34.689-29.395-34.689s12.8-20.984,23.906-10.366" transform="translate(0 -33.575)"/><path class="k" d="M543.277,228.6l7.356,8.693a118.121,118.121,0,0,1-24.219,9.531c-3.473-4.2-7.776-9.387-7.776-9.387s15.144-17.817,24.639-8.837" transform="translate(0 -33.575)"/><path class="m" d="M571.746,261.222s-5.507,2.424-9.608,9.857" transform="translate(0 -33.575)"/><path class="m" d="M575.029,264.555s4.648,1.067,6.829,4.086c1.4,1.94-.883,5.761-.883,5.761" transform="translate(0 -33.575)"/><path class="m" d="M567.05,271.494s4.327,1.168,6.576,3.868c2.14,2.568.571,4.638.571,4.638" transform="translate(0 -33.575)"/><path class="l" d="M542.849,228.1l28.708,33.2s10.266-4.806,16.554,5.747c3.639,6.107-18.111,27.18-24.975,22.366-1.953-1.231-43.946-50.04-43.946-50.04S522.769,216.761,542.849,228.1Z" transform="translate(0 -33.575)"/></g><g class="r"><path class="o" d="M542.54,227.459,570.1,259.632s9.922-5.275,16.177,6.514c4.562,8.595-17.008,29.1-23.145,23.272-6.3-6.065-44.121-50.257-44.121-50.257S522.459,216.116,542.54,227.459Z" transform="translate(0 -33.575)"/></g><g class="s"><path class="q" d="M542.849,227.8l27.564,32.172s9.922-5.274,16.177,6.514c4.562,8.6-16.781,28.036-23.644,23.224-1.953-1.232-42.99-49.67-42.99-49.67S522.769,216.459,542.849,227.8Z" transform="translate(0 -33.575)"/></g><g class="c"><path class="t" d="M431.822,264.269c19.534-4.3,32.781-16.49,36.663-20.279,5.58-5.447,5.614-10.414,4.853-12.1-2.64-5.86-7-7.812-11.066-7.293-3.175.405-16.808,7.921-31.429,10.024-10.418,1.5-26.045-2.211-28.9,7.089a14.945,14.945,0,0,0-3.987.711c-3.291,1.013-5.675,3.987-5.86,6.079a4.561,4.561,0,0,0,1.392,4.246c-3.747,1.605-4.062,4.591-3.587,6.351,1.253,4.65,6.869,5.636,12.791,4.531.785,3.318,4.091,4.279,7.481,4.245,5.964-.059,13.294-1.387,21.648-3.6h0" transform="translate(0 -33.575)"/><path class="e" d="M467.353,221.488s-23.014,12.722-39.589,13.43c-8.837,13.186-1.916,27.957,6,28.891,16.274-2.291,32.737-17.95,32.737-17.95s26.826-28.748.852-24.371" transform="translate(0 -33.575)"/><path class="u" d="M402.133,241.163a6.078,6.078,0,0,0,0,3.729" transform="translate(0 -33.575)"/><path class="u" d="M392.875,252.11a11.234,11.234,0,0,1,2.076,2.487" transform="translate(0 -33.575)"/><path class="v" d="M431.822,264.269c19.534-4.3,32.781-16.49,36.663-20.279,5.58-5.447,5.614-10.414,4.853-12.1-2.64-5.86-7-7.812-11.066-7.293-3.175.405-16.808,7.921-31.429,10.024-10.418,1.5-26.045-2.211-28.9,7.089a14.945,14.945,0,0,0-3.987.711c-3.291,1.013-5.675,3.987-5.86,6.079a4.561,4.561,0,0,0,1.392,4.246c-3.747,1.605-4.062,4.591-3.587,6.351,1.253,4.65,6.869,5.636,12.791,4.531.785,3.318,4.091,4.279,7.481,4.245,5.964-.059,13.294-1.387,21.648-3.6h0" transform="translate(0 -33.575)"/></g><g class="w"><path class="o" d="M431.822,264.269c19.534-4.3,32.781-16.49,36.663-20.279,5.58-5.447,5.614-10.414,4.853-12.1-2.64-5.86-7-7.812-11.066-7.293-3.175.405-16.808,7.921-31.429,10.024-10.418,1.5-26.045-2.211-28.9,7.089a14.945,14.945,0,0,0-3.987.711c-3.291,1.013-5.675,3.987-5.86,6.079a4.561,4.561,0,0,0,1.392,4.246c-3.747,1.605-4.062,4.591-3.587,6.351,1.253,4.65,6.869,5.636,12.791,4.531.785,3.318,4.091,4.279,7.481,4.245,5.964-.059,13.294-1.387,21.648-3.6h0" transform="translate(0 -33.575)"/></g><g class="c"><path class="x" d="M498.737,121.72c-15.2,3.3-26.043-9.961-27.707-18.79-1.68-8.91,6.752-26.965,9.935-34.067,2.945-6.57,9.9-25.844,15.667-32.614,1.541-1.808,3.589-3.441,4.677.146.581,1.913,4.073,15.259,5.654,21.57,1.587,6.329,6.646,25.3,8.761,32.573,2.132,7.335,1.95,27.069-16.987,31.182" transform="translate(0 -33.575)"/><path class="u" d="M498.737,121.72c-15.2,3.3-26.043-9.961-27.707-18.79-1.68-8.91,6.752-26.965,9.935-34.067,2.945-6.57,9.9-25.844,15.667-32.614,1.541-1.808,3.589-3.441,4.677.146.581,1.913,4.073,15.259,5.654,21.57,1.587,6.329,6.646,25.3,8.761,32.573C517.856,97.873,517.674,117.607,498.737,121.72Z" transform="translate(0 -33.575)"/><path class="y" d="M499.559,105.525c-9.556,1.9-14.751-5.727-15.7-11.276-.952-5.6,3.809-16.332,5.485-20.912.982-2.687,7.27-18.238,9.139-21.006.678-1.005,1.577-.835,1.99.34s2.666,10.279,3.788,14.21S508.3,82.713,509.545,87.3c1.252,4.619,1.923,15.865-9.986,18.23" transform="translate(0 -33.575)"/><path class="x" d="M451.631,133.022c-15.222,3.246-23.827-10.776-27.66-18.911-2.428-5.152,5.6-22.884,9.967-33.561,1.731-4.231,11.678-26.279,14.6-30.743,1.061-1.621,3.267-4,4.288-1.941,1.206,2.44,4.627,16.64,6.273,22.919,1.656,6.318,7.826,23.583,9.915,30.876,2.106,7.35,1.587,27.317-17.384,31.361" transform="translate(0 -33.575)"/><path class="u" d="M451.631,133.022c-15.222,3.246-23.827-10.776-27.66-18.911-2.428-5.152,5.6-22.884,9.967-33.561,1.731-4.231,11.678-26.279,14.6-30.743,1.061-1.621,3.267-4,4.288-1.941,1.206,2.44,4.627,16.64,6.273,22.919,1.656,6.318,7.826,23.583,9.915,30.876C471.121,109.011,470.6,128.978,451.631,133.022Z" transform="translate(0 -33.575)"/><path class="y" d="M451.721,118.9c-9.573,1.863-15.2-5.557-15.319-11.19-.119-5.88,3.864-16.411,5.558-20.99.994-2.686,6.9-17.516,8.515-20.443,1.133-2.052,1.581-1.517,1.989-.34S455.7,76.3,456.806,80.238s4.125,15.826,5.352,20.418c1.237,4.627,1.493,15.918-10.437,18.239" transform="translate(0 -33.575)"/><path class="e" d="M443.473,186.666c6.1,22.891,8.111,39.437,12.083,49.664,5.038,12.973,14.612,14.272,36.249,11.322a193.692,193.692,0,0,0,48.474-13.487c12.392-5.273,7.425-17.459,6.422-27.471-1.284-12.845-18.815-88.022-28.986-113.1-5.33-13.143-16.151-11.228-33.665-6.563a412.777,412.777,0,0,0-50.091,16.983c-7.548,3.21-13.486,7.635-8.736,21.395,5.811,16.829,12.736,40.58,18.25,61.258" transform="translate(0 -33.575)"/><path class="x" d="M438.276,168.863c-5.782-19.736-14.924-45.986-15.277-50.282-.514-6.28,3.008-9.86,7.7-12.918,3.711-2.418,27.277-10.5,38.81-14.059,1.083.455,10.747,5.974,14.078,23.172,1.7,8.8-1.451,30.944-12.06,39.959-8.573,7.285-22.734,13.266-33.251,14.128m79.49-74.638c-3.585-6.079-4.972-8.37-9.775-9.753-3.08-.887-10.737-.073-11.466.008-2.949,10.721.334,25.514,1.689,30.866,2.369,9.35,6.637,19.766,20.089,28.783,4.27,2.862,10.952,5.272,15.674,5.357-4.388-16.522-12.874-49.6-16.211-55.261m-69.26,114.056c.438-.055,5.9-1.207,4.719-9.235-1.267-8.634-8.5-8.72-8.859-8.53.478,1.548,1.832,7.5,2.172,8.552,1.05,3.254.452,3.889,1.968,9.213m3.875,3.371a5.412,5.412,0,0,0-3.235.878c2.763,9.631,3.637,19.954,7.171,26.464,1.088.512,4.769-.94,5.958-3.081,1.1-1.983.975-8.527-.5-13.33-1.972-6.423-4.327-10.889-9.4-10.931" transform="translate(0 -33.575)"/><path class="z" d="M539.8,206.146c-2.8-7.065-6.636-16.982-21.549-15.342-8.345.919-16.064,2.266-23.762,5.139-16.448,6.138-20.226,17.081-19.123,31.753a215.251,215.251,0,0,0,2.926,21.366c8.865-.783,28.127-3.684,33.454-5.338,6.9-2.143,22.681-6.338,28.054-9.463a30.505,30.505,0,0,0,4.638-3.069c-.466-4.747-2.237-19-4.638-25.046" transform="translate(0 -33.575)"/><path class="aa" d="M443,186.761c6.1,22.891,8.111,39.436,12.083,49.664,5.038,12.972,14.612,14.273,36.249,11.322A193.626,193.626,0,0,0,539.8,234.26c12.392-5.273,7.425-17.459,6.423-27.471-1.285-12.844-18.816-88.021-28.987-113.1-5.33-13.143-16.151-11.227-33.665-6.563-20.687,5.509-40.643,13.275-50.091,16.982-7.635,3-13.486,7.636-8.735,21.4C430.558,142.332,437.484,166.083,443,186.761Z" transform="translate(0 -33.575)"/></g><g class="ab"><path class="ac" d="M443,186.761c6.1,22.891,8.111,39.436,12.083,49.664,5.038,12.972,14.612,14.273,36.249,11.322A193.626,193.626,0,0,0,539.8,234.26c12.392-5.273,7.425-17.459,6.423-27.471-1.285-12.844-18.816-88.021-28.987-113.1-5.33-13.143-16.151-11.227-33.665-6.563-20.687,5.509-40.643,13.275-50.091,16.982-7.635,3-13.486,7.636-8.735,21.4C430.558,142.332,437.484,166.083,443,186.761Z" transform="translate(0 -33.575)"/></g><g class="ad"><path class="ae" d="M443,186.761c6.1,22.891,8.111,39.436,12.083,49.664,5.038,12.972,14.612,14.273,36.249,11.322A193.626,193.626,0,0,0,539.8,234.26c12.392-5.273,7.425-17.459,6.423-27.471-1.285-12.844-18.816-88.021-28.987-113.1-5.33-13.143-16.151-11.227-33.665-6.563-20.687,5.509-40.643,13.275-50.091,16.982-7.635,3-13.486,7.636-8.735,21.4C430.558,142.332,437.484,166.083,443,186.761Z" transform="translate(0 -33.575)"/></g><g class="c"><path class="b" d="M493.913,120.166s-5.629-25.335-21.046-22.911c-22.449,5.282-16.356,43.535.611,47.062,11.845,2.462,24.974-3.247,20.435-24.151" transform="translate(0 -33.575)"/><path class="af" d="M493.913,120.166s-5.629-25.335-21.046-22.911c-22.449,5.282-16.356,43.535.611,47.062C485.323,146.779,498.452,141.07,493.913,120.166Z" transform="translate(0 -33.575)"/><path class="ag" d="M472.871,125.336c.966,2.921,4.028,4.865,6.172,4.246,5.067-1.463,2.689-9.344,1.911-11.354-1.6-4.14-3.387-5.389-5.415-5.43-2.632-.053-5.522,3.905-2.668,12.538" transform="translate(0 -33.575)"/><path class="b" d="M501.838,89.93s-12.78,1.97-4.87,26.535c7.9,24.546,17.993,18.915,17.993,18.915s12.579-2.259,5.06-26.034c-7.547-23.862-18.183-19.416-18.183-19.416" transform="translate(0 -33.575)"/><path class="af" d="M501.838,89.93s-12.78,1.97-4.87,26.535c7.9,24.546,17.993,18.915,17.993,18.915s12.579-2.259,5.06-26.034C512.474,85.484,501.838,89.93,501.838,89.93Z" transform="translate(0 -33.575)"/><path class="ag" d="M500.236,105.678a12.819,12.819,0,0,0,.673,7.316c1.021,2.408,2.528,4.223,4.521,3.92a3.435,3.435,0,0,0,3.078-3.853,18.538,18.538,0,0,0-1.47-6c-.8-2.047-2.161-4.354-3.983-4.167a3,3,0,0,0-2.819,2.783" transform="translate(0 -33.575)"/><path class="z" d="M455.126,99.18c3.433-.207,6.872-4.645,10.087-7.131,5.6-4.329,7.183-4.058,8.277-6.9.881-2.288.162-6.464-3.235-7.468-3.377-1-7.491-.18-11.8,2.378s-8.505,7.611-8.9,12.1c-.4,4.51,1.628,7.252,5.571,7.014" transform="translate(0 -33.575)"/><path class="ah" d="M455.126,99.18c3.433-.207,6.872-4.645,10.087-7.131,5.6-4.329,7.183-4.058,8.277-6.9.881-2.288.162-6.464-3.235-7.468-3.377-1-7.491-.18-11.8,2.378s-8.505,7.611-8.9,12.1C449.155,96.676,451.183,99.418,455.126,99.18Z" transform="translate(0 -33.575)"/><path class="z" d="M488.534,81.559c2.531,1.818,8.158.461,11.544,1.107,3.958.753,7.557,2.622,11.361.534,3.121-1.712,3.045-4.245,2.462-6.564-1.012-4.023-6-6.925-11.025-7.671-4.785-.709-10.177.173-13.2,2-3.959,2.39-4.627,8.094-1.142,10.6" transform="translate(0 -33.575)"/><path class="ah" d="M488.534,81.559c2.531,1.818,8.158.461,11.544,1.107,3.958.753,7.557,2.622,11.361.534,3.121-1.712,3.045-4.245,2.462-6.564-1.012-4.023-6-6.925-11.025-7.671-4.785-.709-10.177.173-13.2,2C485.717,73.353,485.049,79.057,488.534,81.559Z" transform="translate(0 -33.575)"/><path class="ai" d="M517.891,106.9l-22.922,5.877,4.066,18.159s-1.059,6.213-10.6,13.424a18.47,18.47,0,0,0-7.128,17.975s47.715-10.881,47.968-11.043-5.821-40.624-5.821-40.624Z" transform="translate(0 -33.575)"/><path class="z" d="M516.177,157.967c-13.69,6.508.472,17.5,2.884,23.566.847,2.134,4.223-1.813,3.662-.953-6.943,10.657-21.266,10.628-25.3,10.653a21.114,21.114,0,0,1-16.935-7.707,21.381,21.381,0,0,1-5.291-14.176c0-7.135,6.337-13.794,10.351-17.6,3.842-3.642,9.283-9.078,13.206-12.559,6.755-5.993,5.9-21.342,8.75-26.449,1.535-2.752,1.876-4.291,8.659-5.615,4.381-.854,9.247-1.846,12.118-2.337s7.154,1.958,8.314,6.078,3.658,28.016-.477,34.406-19.936,12.693-19.936,12.693" transform="translate(0 -33.575)"/><path class="y" d="M484.058,158.552c4.481-4.566,12.177-10.361,15.715-13.2,5.422-4.352,9.717-9.846,11.083-16.411,2.415-11.6,2.007-20.836,7.535-21.931,6.836-1.624,20.621-6.8,23.333-4.234s1.489,18.612,2.533,27.445c1.066,9.023-.988,19.532-4.214,23.852-3.4,4.559-12.53,5.413-19.323,7.185-.807.21-7.5.835-7.889,4.217-.545,4.734,4.288,13.767,6.187,16.4,1.261,1.749,4.618-2.8,4.326-2.245-1.427,2.711-6.232,6.136-10.154,7.715-12.67,5.1-22.717.7-24.55-.448a21.105,21.105,0,0,1-9.275-12.071c-1.07-3.554-.6-10.881,4.693-16.27" transform="translate(0 -33.575)"/><path class="ag" d="M514.75,163.1s-10.839,1.658-16.965-2.138c-3.721-1.484-14.71,1.376-15.822,7.863-.791,4.61,3.107,28.279,36.932,13.712,1.642-1.959-8-8.965-4.145-19.437" transform="translate(0 -33.575)"/><path class="aj" d="M483.416,177.541s15.527-6.468,22.721,9.07c-1.191,1.34-16.173,3-22.721-9.07" transform="translate(0 -33.575)"/><path class="b" d="M481.963,168.827s2.051-9.8,16.076-7.628c4.184.921,8.889,5.06,24.556-.038.376,3.595-2.153,9.046-17.614,7.357-.855,1.023-6.374,3.64-12.915.595-1.784,2.616-9.859.238-10.1-.286" transform="translate(0 -33.575)"/><path class="ak" d="M513.525,168.518a25.613,25.613,0,0,0,6.065,13.621" transform="translate(0 -33.575)"/><path class="al" d="M482.253,168.518s2.939,2.878,9.813.595c3.3,2.473,9.966,1.57,12.916-.595,1.9,1.439,14.414-.4,16.031-2.553,1.162-1.545,1.313-4.735,1.313-4.735" transform="translate(0 -33.575)"/><path class="am" d="M506.137,186.893c-7.363-16-22.373-9.49-22.373-9.49" transform="translate(0 -33.575)"/><path class="an" d="M494.448,113.114l41.806-11.372s5.833-1.439,6.413,3.776c1.171,15.969,2.534,27.346,1.025,39.654-1.273,10.383-9.413,12.118-12.785,13.142-22.287,7.181-26.4,4.36-32.868,2.885-8.9-2.028-15.017,1.922-15.939,8.152-1.57,10.608,8.039,21.274,25.688,17.22,10.877-2.5,15.222-6.945,15.222-6.945" transform="translate(0 -33.575)"/></g><g class="ao"><path class="o" d="M494.448,113.114l41.806-11.372s5.833-1.439,6.413,3.776c1.171,15.969,2.534,27.346,1.025,39.654-1.273,10.383-9.413,12.118-12.785,13.142-22.287,7.181-26.4,4.36-32.868,2.885-8.9-2.028-15.017,1.922-15.939,8.152-1.57,10.608,8.039,21.274,25.688,17.22,10.877-2.5,15.222-6.945,15.222-6.945" transform="translate(0 -33.575)"/></g><g class="ap"><path class="aq" d="M494.448,113.114l41.806-11.372s5.833-1.439,6.413,3.776c1.171,15.969,2.534,27.346,1.025,39.654-1.273,10.383-9.413,12.118-12.785,13.142-22.287,7.181-26.4,4.36-32.868,2.885-8.9-2.028-15.017,1.922-15.939,8.152-1.57,10.608,8.039,21.274,25.688,17.22,10.877-2.5,15.222-6.945,15.222-6.945" transform="translate(0 -33.575)"/></g><g class="c"><path class="ar" d="M544.61,114.341c-.515,4.841-2.17,11.265-6.138,11.989s-7.883-3.037-10.716-5.253-8.219-6.219-8.843-9.6c-.978-5.3,1.222-6.134,11.98-8.826,8.261-2.068,10.14-2.808,12.579.075,1.9,2.249,1.6,7.318,1.138,11.613" transform="translate(0 -33.575)"/><path class="v" d="M544.61,114.341c-.515,4.841-2.17,11.265-6.138,11.989s-7.883-3.037-10.716-5.253-8.219-6.219-8.843-9.6c-.978-5.3,1.222-6.134,11.98-8.826,8.261-2.068,10.14-2.808,12.579.075C545.374,104.977,545.068,110.046,544.61,114.341Z" transform="translate(0 -33.575)"/><path class="as" d="M538.386,102.488c1.721.336,2,2.054.8,3.333s-3.2,2.453-8.048,3.406c-3.595.709-7.211,1.374-7.389-1.123-.193-2.706,3.531-2.935,6.812-3.912,4.267-1.272,6.309-2,7.826-1.7" transform="translate(0 -33.575)"/><path class="d" d="M459.742,174.822s-45.365-16.814-48.962-17.614a.618.618,0,0,1-.38-.927c.416-.833,2.081-5.513-1.374-7.219a5.086,5.086,0,0,0-7.118,2.694c-.073.236-.3.885-1-.232-1.439-2.533-5.149-4.1-7.689-2.1-2.4,1.89-1.605,6.35,1.3,7.546.657.27-.428.445-1.053.232a4.966,4.966,0,0,0-6.261,4.245c-.365,3.114,2.709,4.938,3.958,5.5.5.228.133.656-.23.829a3.984,3.984,0,0,0-1.534,5.94c2.194,3.212,6.915,1.951,8.973.215.608-.592.838-.25,1.088-.072s1.135,1.053,4.389.714a1.928,1.928,0,0,1,.8.215c2.629,1.282,48.777,17.588,48.777,17.588" transform="translate(0 -33.575)"/><path class="e" d="M459.405,174.7l-40.084-14.62s9.524,12.034-5.479,18.167c5.926,2.752,39.584,14.131,39.584,14.131S471.7,178.14,459.405,174.7" transform="translate(0 -33.575)"/><path class="f" d="M399.8,161.192s.749,4.6,6.208,4.067" transform="translate(0 -33.575)"/><path class="at" d="M459.742,174.822s-45.365-16.814-48.962-17.614a.618.618,0,0,1-.38-.927c.416-.833,2.081-5.513-1.374-7.219a5.086,5.086,0,0,0-7.118,2.694c-.073.236-.3.885-1-.232-1.439-2.533-5.149-4.1-7.689-2.1-2.4,1.89-1.605,6.35,1.3,7.546.657.27-.428.445-1.053.232a4.966,4.966,0,0,0-6.261,4.245c-.365,3.114,2.709,4.938,3.958,5.5.5.228.133.656-.23.829a3.984,3.984,0,0,0-1.534,5.94c2.194,3.212,6.915,1.951,8.973.215.608-.592.838-.25,1.088-.072s1.135,1.053,4.389.714a1.928,1.928,0,0,1,.8.215c2.629,1.282,48.777,17.588,48.777,17.588" transform="translate(0 -33.575)"/></g><g class="au"><path class="av" d="M459.742,174.822s-45.365-16.814-48.962-17.614a.618.618,0,0,1-.38-.927c.416-.833,2.081-5.513-1.374-7.219a5.086,5.086,0,0,0-7.118,2.694c-.073.236-.3.885-1-.232-1.439-2.533-5.149-4.1-7.689-2.1-2.4,1.89-1.605,6.35,1.3,7.546.657.27-.428.445-1.053.232a4.966,4.966,0,0,0-6.261,4.245c-.365,3.114,2.709,4.938,3.958,5.5.5.228.133.656-.23.829a3.984,3.984,0,0,0-1.534,5.94c2.194,3.212,6.915,1.951,8.973.215.608-.592.838-.25,1.088-.072s1.135,1.053,4.389.714a1.928,1.928,0,0,1,.8.215c2.629,1.282,48.777,17.588,48.777,17.588" transform="translate(0 -33.575)"/></g></g></g></svg>